<?xml version="1.0" encoding="utf-8"?>
<!-- Generator: Adobe Illustrator 22.1.0, SVG Export Plug-In . SVG Version: 6.00 Build 0)  -->
<svg version="1.1" id="Layer_1" xmlns="http://www.w3.org/2000/svg" xmlns:xlink="http://www.w3.org/1999/xlink" x="0px" y="0px"
	 viewBox="0 0 503.7 503.7" style="enable-background:new 0 0 503.7 503.7;" xml:space="preserve">
<style type="text/css">
	.st0{fill:#C9C8C7;}
</style>
<g>
	<g>
		<path class="st0" d="M468,39.4H35.8c-19.7,0-35.7,16-35.7,35.7L0,369.5c0,19.7,16,35.7,35.7,35.7h141.4v35.4h-27.6
			c-2.2,0-3.9,1.8-3.9,4v15.5c0,2.2,1.7,4.1,3.9,4.1h204c2.2,0,4.6-1.9,4.6-4.1v-15.5c0-2.2-2.4-4-4.6-4h-26.9v-35.4h141.3
			c19.7,0,35.7-16.1,35.7-35.7l0.1-294.4C503.7,55.4,487.7,39.4,468,39.4z M251.3,377.5c-6.5,0-11.8-5.3-11.8-11.8
			c0-6.5,5.3-11.8,11.8-11.8c6.5,0,11.8,5.3,11.8,11.8C263.1,372.2,257.9,377.5,251.3,377.5z M472.2,326.6H31.5V70.8h440.6V326.6z"
			/>
	</g>
</g>
</svg>
